<svg xmlns="http://www.w3.org/2000/svg" width="20" height="20" fill="#000"><path d="M12.833 2.51a10.122 9.794 0 0 0-.529 1.062 14.635 14.16 0 0 0-4.572 0 10.122 9.794 0 0 0-.529-1.062A15.972 15.454 0 0 0 3.08 3.766 17.3 16.739 0 0 0 .085 14.96a16.572 16.034 0 0 0 5.062 2.501 12.867 12.45 0 0 0 1.108-1.68 9.633 9.321 0 0 1-1.708-.802 3.384 3.275 0 0 0 .42-.319 11.64 11.263 0 0 0 10.102 0q.21.174.42.32a10.822 10.47 0 0 1-1.707.801A12.388 11.987 0 0 0 14.86 17.5a16.412 15.879 0 0 0 5.05-2.502 17.19 16.633 0 0 0-2.992-11.193A16.062 15.54 0 0 0 12.833 2.5ZM6.704 12.7a1.937 1.874 0 0 1-1.797-1.931 1.927 1.865 0 0 1 1.797-1.932 1.927 1.865 0 0 1 1.797 1.931A1.927 1.865 0 0 1 6.704 12.7m6.628 0a1.937 1.874 0 0 1-1.796-1.931 1.927 1.865 0 0 1 1.796-1.932 1.917 1.855 0 0 1 1.797 1.931 1.917 1.855 0 0 1-1.796 1.932" style="stroke-width:.999997"/></svg>