<svg xmlns="http://www.w3.org/2000/svg" width="20" height="20" fill="#666"><path d="M10 0C4.478 0 0 4.59 0 10.253c0 4.53 2.865 8.373 6.84 9.729.498.095.66-.223.66-.493v-1.908c-2.782.62-3.36-1.21-3.36-1.21-.456-1.186-1.112-1.5-1.112-1.5-.907-.638.07-.623.07-.623 1.004.071 1.532 1.056 1.532 1.056.892 1.567 2.34 1.114 2.91.852.09-.663.348-1.115.635-1.37-2.22-.26-4.556-1.14-4.556-5.068 0-1.12.391-2.035 1.03-2.752-.103-.258-.446-1.302.098-2.713 0 0 .84-.275 2.75 1.05A9.4 9.4 0 0 1 10 4.958c.85.005 1.706.118 2.505.345 1.91-1.325 2.747-1.05 2.747-1.05.545 1.411.202 2.46.099 2.713.641.717 1.029 1.633 1.029 2.752 0 3.938-2.34 4.805-4.566 5.059.358.318.686.941.686 1.898v2.814c0 .273.16.593.668.492 3.97-1.358 6.832-5.2 6.832-9.728C20 4.592 15.523 0 10 0" style="stroke-width:.999999"/></svg>