<svg xmlns="http://www.w3.org/2000/svg" width="20" height="20" fill="#000"><path d="M20.001 10.14c0-1.407-.998-2.534-2.247-2.393-.499 0-1.123.281-1.497.704-1.748-1.268-3.745-2.113-5.866-2.113l.998-5.352 3.245.845c0 .986.75 1.69 1.623 1.69s1.497-.845 1.497-1.831S17.006 0 16.132 0c-.625 0-1.124.423-1.373.986L11.264 0h-.25c-.124 0-.124.14-.124.282L9.642 6.338c-2.122 0-4.118.705-5.866 2.113-.873-.986-2.246-.986-3.12 0-.873.986-.873 2.535 0 3.52.125.142.375.423.625.423v.704C1.28 16.902 5.148 20 10.016 20c4.866 0 8.736-3.098 8.736-6.902v-.704C19.5 11.972 20 11.127 20 10.141M5.024 11.97c0-.985.749-1.69 1.497-1.69.874 0 1.498.846 1.498 1.69 0 .846-.749 1.69-1.498 1.69-.873 0-1.497-.703-1.497-1.69m8.737 4.649c-1.124.845-2.372 1.408-3.745 1.267q-2.06 0-3.744-1.267c-.125-.142-.125-.422 0-.704a.35.35 0 0 1 .5 0c.873.704 1.996 1.127 3.12.986 1.123.14 2.246-.282 3.12-.986.125-.142.375-.142.624 0 .25.14.25.422.125.704m-.375-2.958c-.874 0-1.498-.845-1.498-1.69s.75-1.69 1.498-1.69c.874 0 1.498.845 1.498 1.69.125.985-.625 1.69-1.498 1.69" style="stroke-width:.999995"/></svg>